# xmcd
#
# Track frame offsets:
#	150
#	16162
#	30563
#	54774
#	72313
#	85529
#	99974
#	110850
#	127827
#	141883
#	159938
#	173132
#	189083
#	204905
#
# Disc length: 2962 seconds
#
# Revision: 1
# Processed by: cddbd v1.5.2PL0 Copyright (c) Steve Scherf et al.
# Submitted via: EasyCDDAExtractor 10.2.0.1
#
DISCID=a10b900e
DTITLE=Eduardo Lages - Cenário
DYEAR=2007
DGENRE=Instrumental
TTITLE0=Como é grande o meu amor por você
TTITLE1=And I Love Her
TTITLE2=McArthrur Park
TTITLE3=Desabafo
TTITLE4=My Chérie Amour
TTITLE5=How Deep Is Your Love
TTITLE6=Yesterday
TTITLE7=Os Teus Botões
TTITLE8=Love Me Tender
TTITLE9=Overjoyed
TTITLE10=Eleanor Rigby
TTITLE11=The Winner Takes It All
TTITLE12=The More I See You
TTITLE13=Cenário
EXTD=
EXTT0=
EXTT1=
EXTT2=
EXTT3=
EXTT4=
EXTT5=
EXTT6=
EXTT7=
EXTT8=
EXTT9=
EXTT10=
EXTT11=
EXTT12=
EXTT13=
PLAYORDER=
